<svg width="27" height="16" viewBox="0 0 27 16" fill="none" xmlns="http://www.w3.org/2000/svg">
<path d="M21.0351 5.5C20.4531 5.49609 19.8984 5.58984 19.3789 5.76953L18.0937 3.625H21.3125C21.832 3.625 22.25 3.20703 22.25 2.6875V1.4375C22.25 0.917969 21.832 0.5 21.3125 0.5H19.5429C19.2773 0.5 19.0234 0.613281 18.8476 0.808594L17.3828 2.4375L16.4922 0.953125C16.3203 0.671875 16.0156 0.5 15.6875 0.5H12.5625C12.2187 0.5 11.9375 0.78125 11.9375 1.125V1.75C11.9375 2.09375 12.2187 2.375 12.5625 2.375H15.1562L15.9062 3.625H9.90231C9.21091 2.72266 8.14841 2.0625 5.99998 2.0625H3.83201C3.30467 2.0625 2.86326 2.49219 2.87498 3.01953C2.88279 3.52734 3.30076 3.9375 3.81248 3.9375H5.99998C6.95701 3.9375 7.51169 4.36328 7.86716 4.90625L7.42576 5.70703C6.91794 5.55469 6.37498 5.48438 5.81248 5.50391C3.18357 5.59766 1.06248 7.75 0.999983 10.3828C0.937483 13.1992 3.1992 15.5 5.99998 15.5C8.3281 15.5 10.2851 13.9063 10.8437 11.75H14.1328C14.6679 11.75 15.0937 11.3047 15.0703 10.7695C14.9882 8.92969 15.7539 7.10937 17.2656 5.88672L17.7539 6.69922C16.6757 7.625 15.9922 9 16.0039 10.5352C16.0234 13.2539 18.2382 15.4766 20.957 15.5C23.7539 15.5273 26.0273 13.2539 26.0039 10.457C25.9765 7.73828 23.7539 5.51953 21.0351 5.5V5.5ZM5.99998 13.625C4.27732 13.625 2.87498 12.2227 2.87498 10.5C2.87498 8.77734 4.27732 7.375 5.99998 7.375C6.16404 7.375 6.3281 7.38672 6.48826 7.41406L4.86717 10.3594C4.52342 10.9844 4.97654 11.75 5.68748 11.75H8.86325C8.37888 12.8516 7.27732 13.625 5.99998 13.625ZM24.121 10.6719C24.0351 12.2578 22.7539 13.5391 21.1718 13.6211C19.3711 13.7187 17.875 12.2812 17.875 10.5C17.875 9.66406 18.2031 8.90625 18.7382 8.34766L20.6679 11.5664C20.8437 11.8633 21.2304 11.957 21.5273 11.7812L22.0625 11.4609C22.3593 11.2852 22.4531 10.8984 22.2773 10.6016L20.3789 7.44141C20.582 7.39844 20.789 7.37891 21 7.37891C22.7812 7.375 24.2148 8.87109 24.121 10.6719Z" fill="#5B5B5B"/>
</svg>
