<svg width="25" height="29" viewBox="0 0 25 29" fill="none" xmlns="http://www.w3.org/2000/svg">
<path d="M24.3968 22.5167L17.8566 11.9978V3.57143H18.3031C19.0452 3.57143 19.6423 2.97433 19.6423 2.23214V1.33929C19.6423 0.597098 19.0452 0 18.3031 0H6.69591C5.95372 0 5.35662 0.597098 5.35662 1.33929V2.23214C5.35662 2.97433 5.95372 3.57143 6.69591 3.57143H7.14234V11.9978L0.602156 22.5167C-1.03289 25.1451 0.853272 28.5714 3.95595 28.5714H21.043C24.1513 28.5714 26.0319 25.1395 24.3968 22.5167V22.5167ZM7.69479 17.8571L10.3845 13.5268C10.591 13.2366 10.7082 12.8795 10.7082 12.5V3.57143H14.2796V12.5C14.2796 12.885 14.4024 13.2366 14.6033 13.5268L17.293 17.8571H7.69479V17.8571Z" fill="#5B5B5B"/>
</svg>
