<svg width="26" height="27" viewBox="0 0 26 27" fill="none" xmlns="http://www.w3.org/2000/svg">
<path d="M25.6582 9.53516L23.7246 7.60157C23.2656 7.14258 22.5234 7.14258 22.0693 7.60157L10.375 19.2959L4.93555 13.8516C4.47656 13.3926 3.73437 13.3926 3.28027 13.8516L1.3418 15.7901C0.882813 16.249 0.882813 16.9912 1.3418 17.4502L9.54492 25.6582C10.0039 26.1172 10.7461 26.1172 11.2002 25.6582L25.6533 11.1953C26.1123 10.7315 26.1123 9.98927 25.6582 9.53516ZM9.82324 14.711C10.126 15.0186 10.624 15.0186 10.9268 14.711L21.083 4.54493C21.3857 4.23731 21.3857 3.74414 21.083 3.44141L18.876 1.22949C18.5732 0.921875 18.0752 0.921875 17.7725 1.22949L10.375 8.62696L7.66992 5.917C7.36719 5.60938 6.86914 5.60938 6.5664 5.917L4.35449 8.12891C4.05176 8.43653 4.05176 8.9297 4.35449 9.23243L9.82324 14.711Z" fill="#5B5B5B"/>
</svg>
