<svg width="16" height="15" viewBox="0 0 16 15" fill="none" xmlns="http://www.w3.org/2000/svg">
<path d="M6.37835 1.23994L7.12165 0.496639C7.43638 0.181907 7.94531 0.181907 8.2567 0.496639L14.7656 7.00222C15.0804 7.31695 15.0804 7.82588 14.7656 8.13727L8.2567 14.6462C7.94196 14.9609 7.43304 14.9609 7.12165 14.6462L6.37835 13.9029C6.06027 13.5848 6.06696 13.0658 6.39174 12.7545L10.4263 8.9107H0.803571C0.358259 8.9107 0 8.55245 0 8.10713V7.0357C0 6.59039 0.358259 6.23213 0.803571 6.23213H10.4263L6.39174 2.38838C6.06362 2.077 6.05692 1.55802 6.37835 1.23994Z" fill="#E5E5E5"/>
</svg>
